# xmcd
#
# Track frame offsets:
#	150
#	23447
#	42996
#	66828
#	85806
#	110580
#	131649
#	150229
#	172423
#	191877
#	226661
#	248484
#	267385
#	292096
#	313264
#
# Disc length: 4718 seconds
#
# Revision: 1
# Processed by: cddbd v1.5PL3 Copyright (c) Steve Scherf et al.
# Submitted via: audiograbber 1.82.01
#
DISCID=d1126c0f
DTITLE=Blues - vol 4
DYEAR=1900
DGENRE=
TTITLE0=Eric Clapton - Goin Down slow
TTITLE1=John Lee Hooker - Chill Out
TTITLE2=Stan Webb`s Chicken Shak - Don`t you worry about a thing
TTITLE3=Kenny Neal - Dlues falling down like rain
TTITLE4=Dire Straits - You and Your Friend
TTITLE5=Santana - Moonflower
TTITLE6=Tony Joe White - Gold Fingers
TTITLE7=B B King - The thrill is gone
TTITLE8=Omar and The Howlers - Black Bottom
TTITLE9=Peter Green - Fool no more
TTITLE10=Lucky Peterson - Who`s been talking
TTITLE11=Jonny Lang - Sugarman
TTITLE12=Dave Meniketti - It`s over
TTITLE13=Dr John - I like ki Yoka
TTITLE14=Stivie Ray Vaughan - Tin pan alley
EXTD=
EXTT0=
EXTT1=
EXTT2=
EXTT3=
EXTT4=
EXTT5=
EXTT6=
EXTT7=
EXTT8=
EXTT9=
EXTT10=
EXTT11=
EXTT12=
EXTT13=
EXTT14=
PLAYORDER=
